<?xml version="1.0" encoding="utf-8"?>
<!-- Generator: Adobe Illustrator 19.0.0, SVG Export Plug-In . SVG Version: 6.00 Build 0)  -->
<svg version="1.1" id="Layer_1" xmlns="http://www.w3.org/2000/svg" xmlns:xlink="http://www.w3.org/1999/xlink" x="0px" y="0px"
	 viewBox="0 0 893.2 521" style="enable-background:new 0 0 893.2 521;" xml:space="preserve">
<style type="text/css">
	.st0{fill:#110400;}
	.st1{fill:#3F1515;}
	.st2{fill:#FF9933;}
	.st3{fill:#87270E;}
	.st4{fill:#FF9433;}
</style>
<path id="XMLID_324_" class="st0" d="M882.1,320.5c-5.4-5.1-11.9-9.1-18.7-12.2c-1.4-4.7-3-9-4.9-11c-6.6-6.9-53.2-7.2-47.6-21
	c0.6-1.6,0.6-2.9,0.1-4.1l0.5-3c4.2-25.5,7.3-51.6,9.3-77.8c1.2-15,1.6-25.5,2.1-35.7c0.4-9,0.8-17.5,1.6-28.8
	c2.1-29,6-58.7,11.5-88.3l2.9-15.6l-9.1,0.4l0-0.1l-7.7,0.4c-5.9,0.3-11.7,1.4-17.2,3.4c-1.1,0.4-2.2,0.8-3.3,1.3
	c-7,2.9-13.3,6.9-18.9,12l-2.8,2.6l-0.9,3.7c-4.4,17.7-7.5,35.5-8.9,53c-0.7,8.7-1,15.8-1.3,24.1c-0.3,9-0.7,19.3-1.8,34.4
	c-0.4,5.7-0.9,11.4-1.4,17c-7.6,1.7-14.9,4.3-21.5,7.7c-6.8,3.3-13.1,7.4-18.7,12.2c-12.8,10.9-23.4,26.5-29.5,42.4
	c-1.1-0.5-2.1-1-3.1-1.7c2-2.9,3.5-6.2,4.4-9.8c3.4-13.3-2.1-29.2-13.1-37.6c-7-5.4-16.3-8.1-27.8-8.1c-0.1,0-0.3,0-0.5,0
	c-0.3,0-0.5,0-0.8,0c-10.6,0-22.6,2.6-34.7,7.5c-7.9,3.1-15.4,7-22.4,11.6c-7.9,5.2-14.7,11-20.4,17.2c2.2-9.3,3.8-16.3,4.5-19.3
	l0.1-0.4c2.5-11,4.6-19.7,6.3-26.1c18.7-2.4,37.3-4.3,55.4-5.6c2.3-0.2,4.6-0.3,6.8-0.5c20.5-1.4,36.7-2.5,58.4-10
	c7-2.4,14.6-5.6,20.4-8.4c6.1-3,18.7-9.2,15.2-21.2c-0.9-3-4.1-9.9-15-9.9c-0.2,0-0.5,0-0.7,0c-0.2,0-0.3,0-0.5,0
	c-5,0-14,1.6-27.6,3.9c-13.8,2.4-31,5.4-51.3,8c-16.3,2.1-32.7,3.8-49,4.9l37.2-112.7l-11,3l0-0.1l-11.3,3.1
	c-4.9,1.3-9.8,3.1-14.4,5.1c-8.9,3.8-17.3,8.7-24.8,14.5c-8.1,6.3-15.4,13.8-21.5,22.2l-2.9,3.9l11.1,13.5
	c-6.1,17.1-11.9,34.4-17.2,51.8c-10.8,2.6-21.9,4.9-32.9,6.7c-9.6,1.6-15.3,2.3-24.8,3.5c-4.5,0.5-9.8,1.2-16.7,2
	c-34.1,4.3-51.3,6.5-63.6,10c-8.8,2.5-18,5.8-26.6,9.6c-16.4,7-26.1,13.2-28.8,18.6c-1.1,2.1-1.6,4.3-1.5,6.5
	c-14.3,0.1-27.6,5.3-33.3,7.6c-0.9,0.4-1.8,0.7-2.6,1.1c-12,5-25.3,13.6-36.1,24.3c5.2-17.9,11.8-50.2-8.5-69.7
	c-1.2-1.1-2.4-2.1-3.7-3.1c5.4-4.2,10.1-8.3,13.9-12.3c10.2-10.8,31.5-33.1,23.7-56.3c-2.4-7.1-7.2-13-14.7-18.1
	c-10.9-7.4-25.3-11.3-42.7-11.3c-0.2,0-0.7-0.2-0.7-0.2h-0.6c-25.7,0-55.3,8.7-74.8,14.3c-12.7,3.6-25.8,8.3-38.9,13.6
	c-17.1,6.9-33.8,15.1-49.8,24.2c-7,4-13.8,8.1-19,11.6c-6.8,4.5-17,11.3-11,22.1c2.2,4,6.5,6.5,11.2,6.5c3.7,0,6-1.1,16.7-6.2
	c8-3.8,19.2-9.1,33.3-15.1c-5.1,22.1-12.3,43-21.5,62.2c-0.8,1.6-1.8,3.8-3.1,6.3c-16.4,5.6-33.1,10.9-49.4,15.7l-0.3,0.1l-0.2,0.1
	c-5.2,2-9.5,3.9-12.7,5.5c-5,2.4-18.2,8.8-15.8,21c2.7,13.5,19.8,13.5,26.2,13.5c1.2,0,2.3-0.1,3.3-0.2c0.5,0,0.9-0.1,1.3-0.1
	c7.2-0.4,14.4-1.9,21.5-4.6c-0.7,1.3-1.3,2.5-2,3.7c-1.5,2.8-2.9,5.5-4.3,8.1l-0.2,0.4c-9.5,17.9-16.6,31.1-19.6,41.7
	c-0.8,0.5-1.5,1.3-2.1,2.5c-4.7,10.5-6,21.6-4.9,33c0.5,4.8,2.5,13.4,4.6,21.3c-7,6.7-13.3,13.9-19.1,21.7
	c-6.2,8.4-13.8,18.2-4.8,27.6c4.9,5.1,11.1,9.2,17.8,12.3c-0.4,4.3-0.5,8.6-1,12.4c-1.2,10.2-2.4,20.4-3.6,30.7
	c-0.5,4.5,4.4,6.6,8,6.1c5.7-0.9,10.1,5,13.3,8.8c4.3,5.2,8,11,13,15.5c12.1,11,28.4,11.2,43.7,8.7c19.1-3.2,37.8-8.6,56.8-12.2
	c20.8-3.9,41.8-7.1,62.9-9.4c84.2-9.3,168.8-3.8,253.3-2.1c45.6,0.9,91.3,0.6,136.7-3.9c1.2,2,3,3.9,4.9,5.1
	c3.6,2.2,7.6,2.5,11.7,3.1c5.9,0.8,11.8,1.6,17.6,2.3c22.5,2.8,45.1,5.2,67.8,7.1c33.1,2.8,70.8,4,99.9-14.6
	c7.1-4.6,16.4-10.7,18.1-19.4c1.7-8.8,0.1-17.9-4.5-25.6c4.7-11.5,7.7-24.4,2.7-36.4c-1.1-2.5-2.5-4.9-4.2-7.1
	c5.7-3.1,11.2-6.5,16.5-10.2c15.1-10.4,28.9-22.8,40.4-37.1C887.3,333.4,888.9,327,882.1,320.5z"/>
<g id="XMLID_313_">
	<path id="XMLID_319_" class="st1" d="M647.7,399.7c1.8-0.8,4-2.9,5.4-2.1c4.3,2.3,8.1-1,12.1-0.9c6.1,0.1,12.1,0.5,18.2,0.8
		c0.5,0,1.3,0.7,1.3,1.1c0.1,4.7,2.6,3.3,4.1,3.6c2.3,0.5,4.8,0.1,7.1,0.6c0.8,0.2,2,1.4,2.2,2.6c0.5,2,1.2,2.2,2.4,2.2
		c7.6-0.2,15.3-0.5,22.9-0.5c2.5,0,5.1,0.4,7.6,0.7c1.4,0.1,3.3,3.4,3.3,6c-0.1,2.5,0.6,3,2,2.7c1.2-0.2,2.4-0.3,3.6-0.4
		c1.8-0.2,2.5-1.9,1.3-3.7c-2.5-3.7-1.6-8.4-1.9-12.6c-0.2-2.7,1.3-3.1,2.6-3.2c3.7-0.2,7.3-0.1,11-0.1c8.3,0,16.6-0.1,24.9-0.1
		c8,0,16-0.2,24,0.1c3.8,0.1,7.5,1,11.2,1.6c0.3,4.6,0.4,8.5,3.1,11.1c-1.2,1.2-2.5,2-3.1,3.4c-0.3,0.6,1,2.7,1.8,4.6
		c-1.2,0.2-2.3,0.5-3.4,0.7c-2.8,0.3-3.5,1.9-2.6,6c0.3,1.3,0.6,2.7,0.8,3.7c-0.9,1-1.8,2.1-2.9,3.3c0.8,1,1.4,1.7,1.8,2.2
		c-1.2,1.3-2.3,2.5-3.5,3.7c3.6,2.8,2.7,8.1,2.7,12.4c0.1,6.3-0.3,6.3-4.6,6.3c-7.2,0.1-14.3-0.2-21.5,1.6c-4.3,1.1-8.7,1.4-13,1.8
		c-1.3,0.1-2.6-0.8-3.9-1c-3-0.4-6.1-1-9.1-1c-6.1-0.1-12.1,0-18.2,0.2c-4.2,0.2-8.3,0.9-12.5,1c-4.5,0.1-9-0.5-13.5-0.5
		c-1.7,0-3.4,0.7-5.1,0.8c-3,0.2-6.1,0.2-9.1,0.3c-1.2,0.1-2.3,0.5-3.5,0.7c-0.9,0.1-2,1-2.6-1.3c-0.2-0.7-1.4-1-2.2-1.1
		c-9.4-0.7-18.8-1.3-28.3-1.9c-0.6,0-1.6,0-1.7,0.4c-1.2,4.8-2.4,1.3-3.5,0.8c-1,0.3-1.9,0.9-2.9,0.9c-9,0.2-18,0.1-27.1,0.3
		c-7.9,0.2-15.8,0.6-23.8,0.8c-14.7,0.3-29.3,0.3-44,0.7c-7.8,0.2-15.6,0.9-23.3,1.3c-3.1,0.1-6.1-0.4-9.2,0
		c-3.8,0.5-7.6,1.6-11.4,2.4c-2.8,0.6-5.5,2.9-8.6,1c-1.4-0.8-3.1-0.3-4.7-0.6c-1.4-0.3-2.8-1.1-4.3-1.3c-2-0.3-4-0.3-6-0.4
		c-3-0.2-6,0.2-9.1-1.7c-1.6-1-3.7,0-5.5,0.3c-5.1,0.8-10.2,1.1-15.1,2.9c-3.7,1.3-7.3,3.3-11.1,3.5c-3.1,0.2-6.1,0.5-9.3-0.9
		c-2.2-1-4.8,0.7-7.3,0.4c-2.2-0.2-4.4-1.4-6.6-2.2c-0.5-0.2-1-0.4-1.4-0.7c-1.2-0.8-2-2-1.8-4.2c0.1-1.2,0-2.5,0-3.8
		c-0.1-1.8-0.3-3.2-1.8-2.9c-1.2,0.3-2.3,0.5-2.3,3.2c0.1,5,0,5-3.4,5.1c-5.9,0.2-11.8,0.4-17.7,0.6c-7.7,0.3-15.4,0.5-23.1,0.8
		c-10.5,0.4-21.1,1-31.6,1.3c-11.8,0.3-23.7,0.5-35.5,0.5c-8.8,0-17.7-0.4-26.5-0.5c-20.8-0.3-41.6-0.5-62.5-0.6
		c-6.3,0-12.6,0.5-18.8,0.6c-22.3,0.5-44.6,1.1-66.9,1.3c-5.3,0-10.6-1.7-15.8-1.7c-6.4,0-12.9,0.6-19.3,1.6c-5.7,0.9-11.3,3-17,4
		c-2.2,0.4-4.4-0.7-6.6-1.2c-0.8-0.2-1.8-0.1-2.5-0.6c-1.9-1.3-1.8-4.7-3-6.9c-0.5-0.9-0.9-2.2-1.6-2.4c-3.7-1.2-7.4-2.3-11.2-2.9
		c-1.7-0.3-3-0.9-3.2-3.7c-0.5-7-0.8-14.1-1.2-21.1c-0.2-3.5-0.3-7-0.6-10.5c-0.3-3.2,0.7-6.2,2.9-6.5c3.4-0.6,6.8-0.5,10.1-0.9
		c2.6-0.4,5.2-1.2,7.8-1.7c2.3-0.5,4.6-1,6.9-1.1c8.5-0.5,17-0.8,25.5-1.4c3.9-0.3,7.7-1.7,11.5-1.8c3.7-0.1,7.4,0.6,11.2,1.1
		c4.5,0.6,9,2,13.5,2c18.6,0,37.1-0.4,55.7-0.8c6.2-0.1,12.4-0.5,18.5-1c5.4-0.5,10.7-1.6,16.1-2.1c3.9-0.3,7.7-0.2,11.6,0
		c2.4,0.1,4.7,0.1,6.8-2.1c0.6-0.6,1.6-0.4,2.4-0.4c10.4,0.5,20.8,1.3,31.1,1.4c10.6,0.1,21.2-0.6,31.8-0.7
		c6.6-0.1,13.4-0.7,19.9,0.8c9.1,2.2,18.1,1.7,27.2,2.5c2.4,0.2,5,1.1,7.1-0.2c3.4-2.2,6.7-1.3,10-1.4c10.8-0.4,21.7-0.7,32.5-0.8
		c12.5-0.1,25,0.2,37.4,0.2c4.9,0,9.9-0.3,14.8-0.1c3.4,0.1,6.9,1,10.3,1.2c1.6,0.1,3.3-0.6,5-0.7c1.8-0.1,3.6-0.1,5.3-0.1
		c5.4,0.1,10.7,0.4,16.1,0.5c5.8,0.1,11.5-0.1,17.3-0.1c5.2,0,10.3-0.2,15.5,0.3c4.6,0.5,9.2,2.1,13.8,2.8c2.5,0.4,5-0.2,7.6-0.3
		c3.5-0.2,7-0.2,10.6-0.5c2.2-0.2,5,1.5,5.9-5.1c0.9,4.8,2.7,4.8,4.5,4.5c3.5-0.6,7.1-1.1,10.6-1.7c0.1,0,0.4,0,0.4-0.1
		c3.1-5.1,7.2-3.5,11.1-4c1.6-0.2,3.2-0.8,4.9-1.2c-0.3,3.1,0.6,2.3,1.6,1.7c1.5-0.9,3.2-1.5,4.8-2.1c0.3-0.1,0.7,0.7,1.5,1.8
		c0.1-0.1,0.7-0.6,1.3-1.1c1.6-1.4,3.2-2.9,4.9,0.1c0.2,0.4,1.2,0.2,1.5-0.3c1.4-1.8,2.8-1.8,4.5-1.7c2.8,0.2,5.6-0.3,8.3-1
		c2.7-0.7,4.2,2.3,6.3,3.6c1.4-0.5,2.8-1,4.2-1.4c0.3,0.6,0.6,1.7,0.9,1.7c3.9,0.1,7.8,0.1,11.7,0.1c0.1-0.3,0.1-0.6,0.2-1
		c-0.4-0.4-0.9-1.1-1.3-1C650.7,399,649.2,399.4,647.7,399.7z M617.8,400.8c0,0.5,0.1,1.1,0.1,1.6c5.4-0.4,10.8-0.8,16.2-1.2
		c0-0.5,0-1-0.1-1.5C628.6,400.4,623.2,399.7,617.8,400.8z"/>
	<path id="XMLID_318_" class="st1" d="M640.8,399.1c-1.4,0.5-2.8,1-4.2,1.4c-1.4-1.5-1.5-3.2,0.4-3.5c3-0.5,5.9-0.6,8.9-0.5
		c0.4,0,0.9,1.9,1.3,2.9c-0.2-0.7-0.5-1.4-0.7-2.1l0.1,0.2c-0.3,0-0.7-0.1-1-0.1l-0.1-0.1C644.4,400.7,642.3,398.4,640.8,399.1z"/>
	<path id="XMLID_317_" class="st1" d="M673.4,459.4c-2.2-0.3-4.5-0.7-6.7-1c0-0.3,0.1-0.6,0.1-0.9
		C669.1,457.3,671.4,457.2,673.4,459.4z"/>
	<path id="XMLID_316_" class="st1" d="M645.5,397.4c0,0-0.1-0.1-0.1-0.1C645.5,397.3,645.5,397.4,645.5,397.4z"/>
	<path id="XMLID_315_" class="st1" d="M646.5,397.3c0,0,0.1,0.2,0.1,0.2C646.5,397.5,646.5,397.3,646.5,397.3z"/>
</g>
<g id="XMLID_189_">
	<path id="XMLID_294_" class="st2" d="M774.6,435.8c-0.9,0-1,0.6-1.2,1.2c-2,6.1-5.9,10.6-11.5,13.5c-1.8,0.9-3.9,1.1-5.9,1.2
		c-3.4,0.2-6.7,1.2-10.1,1.1c-1.9,0-3.9-0.2-5.7-0.9c-1.2-0.4-2.5,0.2-3.7-1c0.8-1.3,1.8-2.6,1.1-4.5c-0.2-0.1-0.8,0.8-1.4,0.1
		c-0.2-1.4,1.9-1.1,1.9-2.3c-0.4-0.9-1.3,0.1-1.9-1c-0.1-3.3,0-6.9,0.1-10.5c0.2-5.8,0.1-11.5-0.7-17.2c-0.4-2.9-0.7-3-3.6-3.6
		c0.9-1.7,2.8-2.5,4.7-2.3c1.1,0.1,1.6,0.7,1.5,1.9c0.7-0.5,1.2-0.9,1.8-1.2c0.5-0.3,1.1-0.6,1.7-0.9c0.7,0.8,1.1,1.9,2.3,0.5
		c1.4-1.5,3.3-1.8,5.3-1.5c4.6,0.7,9.3,1.6,13.8,2.8c5.7,1.6,8.7,5.8,10.2,11.3c0.5,2,0.9,4,1.3,6
		C774.6,431,774.6,433.4,774.6,435.8z M742.5,449c0.6-0.1,1.2-0.4,1.6-0.3c3.4,0.9,6.8,0.4,10.2,0.3c1.6,0,3.4-0.2,4.8-1.4
		c5.9-5.1,9.1-11.3,8.2-19.3c-0.3-2.8-0.5-5.5-2.3-7.8c-4.2-5.3-9.1-9.3-16.5-8.7c-1,0.1-2,0-3,0c-2.4,0-2.7,0.2-2.5,2.6
		c0.6,7.1-1.2,14.2-0.2,21.3c-1,2.4-0.4,4.9-0.2,7.3C742.7,444.9,742.5,446.8,742.5,449z"/>
	<path id="XMLID_293_" class="st2" d="M181.5,460.2c-0.2-0.6-0.9-1.5,0.1-1.8c1.7-0.6,1.4-2.1,1.5-3.1c0.2-1.3,0.5-2.6,0.5-4
		c-0.2-6,0.5-12,0.4-17.9c0-2.1-0.3-4.3-0.7-6.4c-0.3-1.3-0.1-2.3,1.2-2.8c0.4-0.1,0.8-0.4,1-0.7c0.2-0.3,0.3-0.8,0.1-1
		c-1.1-1.5,0.7-3.1-0.3-4.6c-0.5-0.7-1.1-1.3-1.7-1.9c-0.4-0.4-0.9-0.3-1.4-0.1c-0.6,0.2-1.1,0.7-1.8,0.5c-1.3-3.2-0.7-4.2,2.6-4.7
		c0.4-0.1,0.9-0.1,1.2-0.3c1.8-1.4,3.1-0.3,4.4,0.8c2.9,2.6,4.9,5.9,6.8,9.3c0.5,0.9,0.9,1.9,2,2.4c1.3,0.6,1,2.1,1.3,3.2
		c0.2,0.6,0.3,1.2,0.8,1.7c2.3,2.2,4.2,4.8,6.1,7.4c0.8,1.2,1.6,2.4,3.2,2.9c1.1,0.3,1.8,1.5,1.2,3c2.5-0.1,2.5,2.4,4.3,3.5
		c0-1.7,0-3.2,0-4.7c0-2.9,0.2-3.1,3.4-4.1c-0.3,4,0.3,8,0.3,12c0,0.4,0,0.9,0,1.3c0,1.5,1.1,3-0.1,4.5c-1.7,2.1-3.5,4.1-6.4,4.8
		c0.6-0.8,1.2-1.6,1.8-2.4c0.5-0.6,0.6-1.2,0-1.7c-3.7-2.6-5.7-6.7-8.3-10.2c-0.9-1.2-2.2-1.9-3-3.2c-0.8-1.3-2-2.4-2.4-4
		c0-0.2-0.2-0.5-0.3-0.5c-2.5-0.6-3-3-4.1-4.9c-1.3-2.3-3.3-4.1-4.9-6.2c-0.6-0.8-1.3-1.5-2-2.3c-0.7,0.3-0.4,0.9-0.4,1.3
		c0,2.1,0,4.3-0.3,6.4c-0.3,2.3-0.3,4.7,0.1,7c0.5,2.7,0.2,5.4,0,8.1c-0.1,1.7,0.2,3.4,0.2,5.1c0,0.3,0,0.8,0.2,1
		c1.8,1.2,0.5,2.1-0.3,3c-1.6,1.7-3.6,2.9-5.5,4.2C182.4,460.2,181.9,460.2,181.5,460.2z"/>
	<path id="XMLID_292_" class="st2" d="M91.2,431.1c1,0,0.9-0.7,0.8-1.3c-0.3-1.7,0.5-2.7,1.9-3.4c0.9-0.5,1.8-1,2.1-2.2
		c0.2-1,1.3-1.2,2.1-1.6c2.4-1.3,2.5-1.6,1.1-3.8c-0.1-0.2-0.2-0.4-0.3-0.8c8.1-5.2,16.8-7.2,26.4-4.7c-0.9,1.7-2.5,2.3-3.9,3.2
		c-0.3,0.2-0.7,0.3-1,0.2c-2.7-1.1-5.5-0.3-8.2-0.5c-0.7-0.1-1.3,0.2-1.8,0.5c-2.3,1.4-4.8,2.5-6.9,4.4c-0.4,0.3-0.7,0.6-0.8,1.2
		c0,0.4-0.1,1-0.5,1.1c-2,0.9-2.2,2.6-2.1,4.4c0,0.6-0.3,1.1-0.7,1.5c-1.4,1.4-1.7,3-0.6,4.5c0.5,0.7,0.7,1.4,0.9,2.1
		c1.3,5.8,4.7,10.3,9.1,14.1c2.6,2.2,5.5,3.8,9.1,3.1c0.8-0.1,1.6,0,2.3,0.1c1.5,0.1,2.7,0.1,3.6-1.5c0.6-1,1.9-1.3,3-2
		c0.6,1-0.7,1.5-0.5,2.4c2.1,0.2,2.4-0.4,1.7-4c-1.2,0.5-2.2,1.5-3.7,1.6c-0.2-1.2,2.4-1.2,1.2-2.6c-0.7-0.7-0.9-2.3-2.8-1.5
		c0.3-0.6,0.4-0.8,0.5-0.9c0.4-0.5,1.5-0.5,1.5-1.1c-0.1-1,0.1-2-0.1-2.9c-0.1-0.8-0.9-1-1.4-1.1c-1.3-0.3-2.6-0.8-4-0.6
		c-0.5,0.1-1,0.1-1.3-0.5c-0.3-0.7,0.2-1,0.7-1.4c1.9-1.6,4.1-1.7,6.5-1.4c0.6,0.1,1.1,0.2,1.7,0.3c3.2,0.3,3.1,0.3,3.5,3.4
		c0.5,3.8-0.9,7.5-0.6,11.3c0.1,1.1,0.4,2.2,0.2,3.4c-0.1,0.8-0.4,1.3-1.2,1.4c-0.5-0.8,0.3-2-0.8-2.9c0.4,3.1-1.9,3.3-3.8,3.9
		c-5.1,1.7-10.1,0.8-15.1-0.2c-0.3-0.1-0.6-0.3-0.8-0.2c-1.9,0.9-3.1-0.8-4.6-1.1c-3.2-0.7-4.9-3.3-7.1-5.2
		c-0.2-0.2-0.4-0.5-0.4-0.7c0-1.4-0.8-2-2.3-2.1c1.3-3.7,0.3-7.1-0.4-10.4c-0.2-0.7-1.3-1.3-2-1.9C91.2,433.4,91.2,432.3,91.2,431.1
		z"/>
	<path id="XMLID_283_" class="st2" d="M502.8,416.1c0.4-1.4,1.8-2.2,1.6-3.7c0-0.2,0.5-0.5,0.8-0.7c2-1.3,4.3-2,6.7-1.3
		c1.2,0.3,2.2,0.3,3.3-0.3c1.6-0.8,3.3-1.1,5-0.5c3,1,6.2,0.1,9.3,1c3.5,1,7.1,2,10.6,3.3c2.7,1.1,4.5,3.1,5.8,5.5
		c0.2,0.3,0.4,0.7,0.2,1c-0.6,0.9-0.2,1.5,0.3,2.3c0.5,0.8-0.2,1.6-0.1,2.7c1.5-0.8,1.7,0.2,2.1,1.3c2.9,8.5-2.4,18.8-8.6,22.8
		c-1.3,0.8-2.6,1.6-3.9,2.5c-2.5,1.8-5.5,1.7-8.3,2c-3.8,0.5-7.7,0.2-11.4-0.8c-1-0.3-1.8-0.1-2.6,0.4c-0.7,0.4-1.4,0.7-2,1.1
		c-1.8-3.3-1.2-6.9-1.3-10.3c-0.1-6.1,0.2-12.1-0.3-18.2c-0.2-3.2,0.5-6.3,0-9.5c-0.4-2.5-1.9-3.4-4.1-2.1
		C504.9,415.3,504.1,416,502.8,416.1z M517,432.1c0,0.9,0,1.8,0,2.7c0,4.3-0.5,8.7-0.4,13c0,1.4,0.4,2,1.9,2.3
		c3.2,0.5,6.4,0.4,9.5-0.4c3.3-0.9,6.5-1.7,8.6-4.9c2.3-3.5,3.8-7.3,4.5-11.4c0.7-4.1-1.4-7.5-2.4-11.2c0-0.2-0.2-0.4-0.4-0.5
		c-5.8-6.7-13.4-7.9-21.7-7.7c0,0.8-0.1,1.4-0.1,1.9c0,1.4,0.5,2.9-1.3,3.6c-0.5,0.2-0.5,0.9-0.2,1.3c0.4,0.7,0.3,1.5,0.3,2.3
		c0,2.7,0,5.4,0,8.1c0,0.3,0.1,0.5,0.1,0.8C515.8,432.1,516.2,431.8,517,432.1z"/>
	<path id="XMLID_275_" class="st2" d="M298.4,421.9c0.9,0.7,1.3,0,1.8-0.3c1.1-0.5,1.7-0.3,2,0.9c1.3,4.3,2.2,8.7,1.9,13.2
		c-0.2,3.9-1.1,7.6-3,11.2c-1.2,2.1-2.8,3.7-4.7,4.8c-2.1,1.2-4,2.7-6.1,3.8c-1.9,0.9-3.8,1.5-5.8,2.1c-1.2,0.3-2.2-0.5-3.2-0.7
		c-1.6-0.3-3.3-0.3-4.9-0.5c-3.6-0.5-6.9-2-9.4-4.6c-2-2.1-3.1-4.9-4.2-7.6c-4.2-10.3-1.4-21.9,7.2-29c2.1-1.8,4.4-3.2,7.6-3.4
		c2.4-0.1,4.8-1.4,7.3-1.1c4,0.5,8,1.3,11,4.3c0.6,0.5,1.2,0.9,1.9,1.4C300,417.9,300.2,419.9,298.4,421.9z M297,424.2
		c-1.4,0.9-2,0.1-2.6-1c-1.2-2.2-2.7-4.2-4.5-5.9c-5.6-5.2-14.4-3.2-18.1,3.9c-1.9,3.8-2.7,7.8-2.7,12.1c0,5,1.6,9.3,4.1,13.4
		c2.1,3.4,5.3,5.4,9.4,5.9c1.6,0.2,3.1,0.4,4.7,0.4c0.7,0,1.5-0.1,1.1,1.2c2-1.9,4.1-3.2,6.3-4.7c-1.9-1.1-0.5-2.1,0.1-2.8
		c0.8-0.9,1.3-1.9,1.6-2.9c1.5-4,1.2-8.1,0.8-12.2c-0.1-1.6-0.4-3.1,1.1-4.1C297.9,426.2,297.5,425.3,297,424.2z M299.5,423
		c0-0.1-0.1-0.1-0.1-0.2c0,0-0.1,0.1-0.1,0.1c0.1,0.1,0.1,0.2,0.2,0.3C299.4,423.1,299.5,423,299.5,423z"/>
	<path id="XMLID_238_" class="st2" d="M645,431c-0.5-6.1,1.8-11,5.9-15.2c1.9-1.9,3.7-3.8,6.1-5.2c0.8-0.5,1.7-0.9,2.6-0.8
		c1.4,0.2,2.7,0.2,3.9-0.8c0.1-0.1,0.4-0.2,0.6-0.1c2.5,1.1,4.9-0.3,7.4-0.1c3.3,0.3,6.3,1.3,8.7,3.7c1.1,1.1,2.1,2.3,3.5,3.1
		c0.9,0.5,1.3,1.5,1.8,2.4c2.4,4.9,3,10.1,2.4,15.4c-0.2,1.8-0.6,3.5-0.9,5.2c-0.5,3-2.3,5.6-4,7.9c-2.1,2.8-5.5,4.3-8.8,5.6
		c-2.9-1-5.3,0.9-8,1.2c-1.3,0.2-2.6,0.2-3.7-0.5c-0.3-0.2-0.7-0.4-1-0.3c-3.1,0.8-5.3-1.4-7.9-2.4c-2.2-0.8-3.7-2.9-4.9-4.9
		C646.3,440.7,644.6,436.1,645,431z M665.8,412.3c-4.2,0.3-8.6,1.3-10,6.8c-0.1,0.3-0.2,0.5-0.3,0.8c-3.1,6.9-3,13.8-0.1,20.7
		c1,2.5,2.6,4.7,3.6,7.2c0.4,0.9,1.3,1.6,2.5,1.8c0.7,0.1,1.7-0.6,2.2,0.9c0.2,0.7,1.5-0.2,2.3,0.3c1.5,0.9,3.1,0.5,4.7-0.3
		c1.6-0.9,2.8-2.2,4.2-3.2c5.4-3.9,6.5-9.5,5.8-15.6c-0.1-0.5-0.1-0.8,0.3-1.1c0.7-0.5,0.5-1.3,0.6-2c0.4-3.3-1.4-5.8-2.8-8.4
		C676,415.2,672.2,412.2,665.8,412.3z"/>
	<path id="XMLID_237_" class="st2" d="M392.6,452.3c0.5,0,1-0.3,1.5-0.1c-1.4,1.5-3.5,2.3-6.7,2.5c-5,0.4-10.1,0-15-0.5
		c-0.6-0.6-0.3-1.2-0.3-1.7c0-11.5,0-23.1,0-34.6c0-1.7-0.3-3.1-2.3-3.7c-1.1,0.6-1.7,2-3.2,2c-0.2-1.8,0.5-3.2,1.9-3.9
		c1.1-0.5,2.4-0.1,3.9,1.2c1.5-0.8,2.9-1.7,4.3-2.4c0.9,0,0.6,0.8,1.1,1.1c1.2-0.4,2.5-0.8,3.8-1.2c4-1.1,7.9,0.2,11.8,1
		c2.1,0.5,4.1,1.4,6.4,1.6c1.2,0.1,2.2,1.2,3.1,1.9c1.9,1.6,4.1,3.1,5.5,5.3c0.6,0.9,1.4,1.9-0.1,2.8c-0.5,0.3-0.4,0.8-0.3,1.3
		c0.6,3.4-0.3,4.9-3.4,6.2c-1,0.4-1.6-0.3-2.8-0.1c1.5-1.2,1.4-2.4,0.8-3.7c-1.2-2.9-2.2-5.9-4.3-8.3c-0.9-1-1.8-1.7-3.1-2.2
		c-4.1-1.7-8.4-2.7-12.8-3.3c-0.7-0.1-1.4-0.2-2.1,0.1c-1.1,3.4-1.5,30.8-0.5,37.4c5,1.1,9.8,0.5,14.5-1.4c2.1-0.9,3.3-3.1,4.8-4.8
		c1.7-1.9,3-4.1,4.1-6.4c0.4-0.8,0.7-1.6,0.5-2.5c-0.1-0.8,0.3-1.4,1-1.7c0.6-0.4,0.9-1,1.3-1.5c1.1-1.5,3-2.5,3.7-4.4
		c0-0.1,0.4-0.1,0.7-0.1c0.6,8.5-1.7,15.9-8.1,21.7c-1,0.9-2,1.1-3.3,1.2c0.3-1.4,2.1-1.4,2.2-2.8c0.2-0.1,0.4-0.2,0.2-0.4
		c-0.1,0.1-0.2,0.2-0.3,0.3c-1.3,0.3-2.3,1.1-3.4,1.7c-1.7,0.9-3.6,1.2-5.3,2c-0.4,0.2-1-0.1-1.4,0.5
		C391.6,452.5,392.1,452.6,392.6,452.3z"/>
	<path id="XMLID_236_" class="st2" d="M336.2,428.8c-2.7,6.2-5.4,11.9-7,18.1c-0.6,2.3-1.8,4.5-2,7c0,0.8-1.1,1-1.8,1.3
		c-2.2,1-3.4,0.4-4.1-1.9c-1.1-3.7-2.3-7.5-3.5-11.2c-0.8-2.5-0.8-2.6,1.5-3.7c0.3-0.2,0.6-0.4,1-0.3c0.3,0.9,0.5,1.8,0.8,2.7
		c0.9,0.5,1.4-0.6,2.3-0.4c1.1,1.6,1.2,3.7,2.6,5.6c1.2-3.3,2.4-6.5,3.6-9.6c1.6-4.1,2.8-8.3,4.6-12.3c0.3-0.7,0.1-1.2-0.1-1.9
		c-0.7-2.2-1.3-4.4-1.9-6.5c-0.2-0.7-0.4-1.3-1.2-1.2c-0.8,0.1-1-0.3-1.1-1c0-0.7,0.4-1,1-1.1c1.9-0.3,3.9-0.7,5.9-1
		c1.1,3.8,2.7,7.2,4.2,10.6c0.6,1.4,0.7,2.5-0.3,3.8c-0.7,1-0.3,1.8,0.9,2c0.8,0.1,0.9,0.4,1.3,1c2.2,3.4,2.6,7.3,3.7,11.1
		c0.5,1.7,1,3.4,2,5c4.9-9.3,7.5-19.1,9.3-29.2c-0.8-0.5-1.6-0.3-2.3-1.1c3.1-1.6,5.7-4.2,9.8-3.6c-0.8,2-1.7,4.1-2.5,6.1
		c-2.7,7.3-4.6,14.8-6.9,22.2c-1.2,3.8-2.4,7.6-3.8,11.3c-0.6,1.4-1.5,2.5-2.4,3.7c-1.2,1.6-4.6,0.8-5.4-1.2
		c-2.9-7.5-5.3-15.2-7.6-22.9C336.7,429.9,336.5,429.5,336.2,428.8z"/>
	<path id="XMLID_235_" class="st2" d="M702.2,410.6c5.2-2.7,10.6-1.9,15.9-0.3c6.2,1.8,6.9,6.7,5.2,11.6c-1.1,3-3.2,5.2-6,6.7
		c-0.9,0.5-1.9,1-2.8,1.4c0.2,0.5,0.7,0.6,1,0.7c5.1,1.4,7.6,5,8.2,10c0.3,2,0.6,4.1,1.6,5.9c0.4,0.7,0.8,1.3,1.3,2
		c1,1.3,2.1,2.1,3.8,0.9c0.6-0.5,1.2-0.5,1.7,0.2c0.3,0.5-0.1,0.9-0.5,1.3c-3.2,3.2-11.1,3.5-14.5,0.4c-0.1-0.2,0.1-0.4,0.2-0.5
		c2.2-1.5,2.3-1.8,1.3-4.3c-0.5-1.2-1.1-2.3-0.5-3.7c-1.6-0.6-1.2-2.2-1.7-3.4c-0.8-1.9-1.6-3.8-3.1-5.3c-1.5-1.5-2.9-2.8-5.2-1.4
		c-1,0.6-1.8-0.2-2.3-1.1c-0.4-0.9,0.5-1.2,1.1-1.5c0.9-0.4,1.7-1.6,2.8-0.3c0.3,0.3,0.6-0.1,0.9-0.3c1.2-1,2.6-1.7,4.1-2.1
		c1-0.3,2-1,2-2.1c0-2.2,1.9-3.4,2.2-5.4c-1.3-0.3-2.5-0.8-2.4-3c0.1-2.1-2.9-5-5-5.2c-2.6-0.3-5.2-0.3-8.1-0.1
		c0,5.3,0.1,10.5,0,15.7c-0.1,4.1-0.3,8.2,0.1,12.4c0.3,3.3,1,6.6,0.9,9.9c0,1.3-0.5,2-1.5,2.5c-1.6,0.7-3.3,2.1-4.9,0.9
		c-1.4-1-1.6-2.9-1.6-4.6c0-1.5,0.1-2.9,1.4-3.8c0.3-0.2,0.4-0.9,0.2-0.9c-1.7-0.2-0.8-1.4-0.8-2.1c0-6.9,0.1-13.8,0.1-20.7
		c0-0.4,0.1-0.9,0-1.3c-0.6-2.6-0.4-4.9,2.1-6.5c0.1-0.1,0-0.4,0-0.6l0,0c0.5,0.2,0.7,0,0.9-0.4l0,0c0.7,0.1,1.1-0.3,1.3-0.9l0,0
		C701.8,411.1,702.1,411,702.2,410.6L702.2,410.6z"/>
	<path id="XMLID_234_" class="st2" d="M473.5,431.5c5.8,2.5,7.8,7.5,8.6,12.8c0.5,2.9,1.6,5.3,3.4,7.4c0.6,0.7,1.6,0.3,2.3,0.1
		c0.8-0.2,1.5-0.7,2.6-1.2c-1.3,1.9-2.7,2.9-4.2,3.9c-0.3,0.2-0.9,0.5-1.2,0.4c-2.2-1.3-4.7,0-7.1-1c-1.7-0.7-2.6-1.6-2.9-3.2
		c-0.5-2.1-0.9-4.3-1.3-6.5c-0.4-2.3-1.2-4.4-2.4-6.3c-1.4-2.2-3.6-3.5-6.3-3.8c-0.6-0.1-1.1,0-1.7,0c-0.5-2.2-0.5-2.2,1.8-3.3
		c0.7,0.3,0.2,1.1,0.8,1.6c2.7-1.8,6.2-2.3,8.4-5.2c0.8-1,1.3-2.3,2.4-3.2c0.8-0.6,0.3-2.1,0.2-3.2c-1.1-0.2-1.6,1.1-2.7,0.8
		c-0.4-2.3-1.3-4.4-2.7-6.3c-1-1.4-2.2-2.1-3.9-2.2c-2.4-0.1-4.8-0.1-7.3,0.1c-0.4,6.2-0.7,12.3-0.3,18.5c0.2,2.7,0.8,5.5,0.7,8.2
		c0,1-0.3,1.6-1.1,2.3c-1.6,1.4-3.3,2.8-2.8,5.4c0.1,0.7,0,1.4,0,2.1c0,3.2-0.2,3.4-3.5,4.3c0.3-7.7,0.4-15.3,0.1-23
		c-0.2-4.8-0.2-9.7-0.3-14.5c0-0.6,0.2-1.3-0.5-1.7c-1.1-0.8-0.9-2-0.8-3.2c2.1-0.6,4.3-0.4,6.3-0.2c3.5,0.3,6.9-0.3,10.3,0
		c1.4,0.1,2.8,0.2,4.2,0.6c1.1,0.3,2.1,0.8,3.3,0.3c1-0.4,1.8,0.3,2.3,1.1c0.9,1.4,1.8,2.9,2.5,4.4c0.6,1.2,0.6,2.6,0.3,4
		c-0.8,3.5-2.6,6.3-5.5,8.3C475.1,430.6,474.4,431,473.5,431.5z"/>
	<path id="XMLID_233_" class="st2" d="M594.4,420.5c0.4-2.9-0.5-5.1-2.3-7c-0.6-0.7-1.1-1-2-0.5c-2.1,1.1-4.4,0.8-6.7,0.7
		c-1.2,0-2.1,0.5-2.8,1.2c-1.7,1.6-2.5,3.7-2.4,6c0,1.7,0.5,3.2,2.4,3.8c0.5,0.2,1,0.5,1.5,0.9c2,1.4,4.1,2.6,6.6,3.2
		c3.5,1,5.9,3.8,8.2,6.3c0.2,0.8-0.8,1-0.6,1.8c1.1,0.3,1.7-0.8,2.7-1c1.8,2.9,1.1,6,0.9,9c-0.2,4.2-3,5.9-6.7,6.8
		c-0.1,0-0.3,0.1-0.4,0.1c-5.1,2.7-10.4,2.2-15.8,1.6c-0.2,0-0.4,0-0.6,0c-4.8,0.2-4-1-4.1-4.4c0-1.1,0-2.1,0-3.2
		c0-2.6,0.6-3.2,3.4-3.6c0,1.6,0.2,3.3,0.4,4.9c0.4,2.4,1.6,3.4,3.9,2.9c1-0.2,2-0.1,2.9,0.1c2.1,0.5,4,0.1,6.2-0.5
		c2.9-0.8,3.2-2.9,3.6-4.9c0.5-2.4,0.6-4.8-1.7-6.7c-1.5-1.3-2.8-2.6-4.9-2.8c-1.2-0.1-1.7-1.1-2.3-1.8c0.1-1,1.2-0.9,1.4-1.6
		c0-0.3-0.3-0.4-0.4-0.3c-1.7,1.2-3.3,1-4.9-0.2c-0.9-0.7-1.7,0.3-2.7,0.2c-2.6-0.3-3.9-2-4.8-4.2c-0.7-1.7-0.7-3.6-1.3-5.4
		c-0.3-0.8,0.1-1.7,0.4-2.5c1.7-4.1,4.4-7.3,8.7-8.9c2.8-1,5.7-0.4,8.5-0.3c1.2,2.4,2.2,0.1,3.3-0.2c0.7-0.2,1.2-0.7,1.9-0.8
		c2.9-0.3,3.3,0,3.5,2.9c0.1,1.3,0.3,2.5,0.3,3.8C597.9,419.1,597.8,419.1,594.4,420.5z"/>
	<path id="XMLID_232_" class="st2" d="M412.1,414.2c0.8-0.9,1.6-1.3,2.4-1.5c3.2-0.8,6.5-1.1,9.7-1c2.8,0,5.6-0.3,8.4-0.4
		c2.7-0.1,5.5-0.1,8.2-0.3c0.8-0.1,1.7,0,2.5,0.3c0.4,1.7,0,3.3,0,4.9c0,1.3-1.4,1.4-2.1,2c-0.7-0.3-0.6-0.9-0.9-1.3
		c-1-1.5-2-2.8-4.4-2.7c-3.7,0.3-7.4,0.1-11.5,0.1c0,2.2-0.2,4.3,0,6.4c0.2,2.1-0.5,3.6-2.3,4.6c-0.7,0.4-1,0.8-0.7,1.6
		c0.8,0.3,1.3-0.8,2.2-0.5c-0.7,1.2-0.9,2.5-0.5,4.1c5.4,0.4,10.8-0.1,16.4-0.6c0.5,1.4,0.3,2.8,0.2,4.2c0,1.2-0.8,1.4-1.8,0.7
		c-1.4-1-3-0.9-4.5-0.7c-2.3,0.3-4.5,0.3-6.8,0.4c-0.5,0-1.4-0.1-1.4,0.3c0,2.1-2.1,3.2-2.3,5.1c-0.1,1.2,0.1,2.4,0,3.6
		c0,1.5-0.2,2.9,1.9,3.4c1.3,0.3,0.6,1.9,1.3,2.9c3.7,0.1,7.5,0.7,11.4,0.5c2.5-0.2,3.9-2.1,5.1-4.1c0.8-1.3,1.1-3.1,3.3-3.4
		c0.3,1.2,0.2,2.3,0,3.5c-0.5,2.1-0.9,4.2-1.1,6.3c-0.1,1.8-1.6,2.6-3.2,2c-2.3-0.8-4.7-1-7.1-0.6c-3.8,0.5-7.6,0.9-11.5,0.5
		c-1.9-0.2-4-0.2-5.7,1c-0.5,0.3-1,0.6-1.5,0.1c-0.5-0.5-0.5-1.1-0.2-1.8c0.3-0.4,0.5-1,0.9-1.2c1.9-1,1.9-2.6,1.8-4.4
		c-0.1-5.2-0.1-10.4-0.1-15.6c0-4.7-0.5-9.4-0.3-14c0.1-2.2-0.4-2.8-2.6-3.5C414.5,414.7,413.4,414.5,412.1,414.2z"/>
	<path id="XMLID_229_" class="st2" d="M135.1,415c3.3-3.2,7.3-2.1,10.9-2.3c0.7,0.8,0.4,1.5,0.5,2.2c0,4.5,0,9.1,0,13.6
		c0,1.8,0.2,3.7,0.3,5.5c0,0.6,0,1.1-0.5,1.6c-1.9,2-1.8,2.5-0.5,4.8c0.5,1,1.4,2.4,0.5,3.8c-1,1.5,0.5,2.5,0.9,3.6
		c0.6,1.9,2.1,3.3,3.7,4.6c0.9,0.7,1.9,1.2,3.1,0.4c0.3-0.2,0.6-0.2,1-0.1c4.2,1,7.6-1,11-2.9c0.9-0.5,0.6-1.4,0.6-2.1
		c0-5.1-0.1-10.1-0.1-15.2c0-1,0-2,1.2-2.5c0.7-0.3,1-0.9,1.1-1.7c0.1-2.4,1.7-3.6,4.3-4.3c-0.8,3.2,1.3,6.2-0.5,9.2
		c-0.2,0.3-0.4,0.6-0.6,0.9c-0.6,0.8-2.3,1.1-1.3,2.4c0.5,0.6,0.3,2.1,1.8,2c0.6,0,0.5,0.8,0.5,1.2c0.2,4.6-0.4,9.1-0.4,13.7
		c0,1-2.7,2.7-3.5,2.2c-0.6-0.4-1.3-0.1-1.7-0.7c-0.4-0.7,0.1-1.8-1-2.4c-3.2,2.4-7,3.5-10.9,4.1c-3,0.5-6,0.4-8.9-0.3
		c-1.6-0.4-3-1.3-3.8-2.9c-0.9-1.8-1.6-3.7-1.8-5.8c-0.3-4-0.4-8-0.3-11.9c0-0.5-0.1-1-0.4-1.4c-0.3-0.5-0.3-1.3,0-1.7
		c2-2.2,0.6-4.7,0.8-7c0.1-0.7,0.2-1.2,0.7-1.7c2.1-1.8,2-2.2-0.6-3.3c0.1-0.5,0.3-0.9,0.4-1.4c0.2-1.4-0.3-2.4-1.9-2.3
		C137.6,417,136.5,415.9,135.1,415z"/>
	<path id="XMLID_228_" class="st2" d="M238.1,437.1c0-3.6,0.5-4.1,3.9-4.2c0.1,0.9-1.1,1-1.1,2c1.3,0.3,2.5,0.3,3.5-0.9
		c0.4-0.5,1.1-0.9,1.7-1.3c1-0.7,2.3-0.7,2.8-2.3c0.7-2.1,1.4-4.1,0.9-6.2c-0.7-2.9-1.9-5.5-4.4-7.4c-0.9-0.7-1.8-1.2-2.8-1.3
		c-2.2-0.2-4.3-0.8-6.6-0.1c-0.1,0.4-0.1,0.8-0.2,1.1c-0.1,4.1,0,8.3-0.4,12.4c-0.1,1.2,0,2.4,0,3.6c0,1,0.7,2,0,3.1
		c-1.4,2.1-2.3,4.6-5.2,5.3c-0.9-0.5-1.3-1.2-1.4-2.3c-0.3-3.1-0.1-6.1-0.1-9.2c0.1-4.1,0.2-8.2,0.3-12.4c0-0.7,0-1.6-1-1.6
		c-0.9,0-2.1-0.1-2.4,0.9c-0.5,1.7-2,1.8-3.2,2.5c-0.9-3.3,0.2-4.9,3.1-6.2c4.7-2,9.6-1.2,14.3-1c2.8,0.1,5.6,0.2,8.3,0.2
		c2.5,0,4.2,1.2,5.7,2.7c1.8,1.9,3.1,4.3,3.7,6.9c0.5,2.3,0.4,4.4-1.1,6.6c-1.6,2.3-3,4.6-5.5,6c-2.3,1.3-4.6,2.6-7.2,3.1
		C242.1,437.6,240.1,437.2,238.1,437.1z"/>
	<path id="XMLID_227_" class="st2" d="M608.5,421c-0.3-0.6-0.8-0.9-0.5-1.7c0.4-1.1,1-1.9,1.8-2.6c2.7-2.2,5.6-4.4,8.8-5.8
		c2.2-0.9,4.8-1,7.2-1c2,0,4,0.1,5.9,0.6c1.1,0.3,2.1-0.1,3.1-0.4c1.9-0.5,1.9-0.5,3.1,1.1c0.7,0.3,1.1-0.5,1.9-0.3
		c0.1,0.1,0.3,0.2,0.3,0.4c0.8,2.2,0.8,4.6,1.3,6.9c0.1,0.7-0.2,1.1-0.7,1.4c-1.1,0.6-2.2,1.3-4,1.8c1.3-1.4,1.1-2.7,1-4
		c-0.1-1-0.3-1.9-1.5-2.3c-0.9-0.3-1.1-1.4-2-2.2c-1.4,1-2.8,0.3-4.3-0.2c-2.5-0.8-5.2-0.6-7.8-0.9c-0.4,0.6-0.4,1.3-1.1,1.7
		c-5.5,3.4-8.3,8.5-8.8,14.8c-0.3,3.7,0.5,7.2,1.9,10.6c0.4,0.9,0.7,1.8,1,2.8c0.3,1.2,0.7,2.5,2.4,2.6c0.7,0,1.4,0.6,1.4,1.1
		c-0.2,2,1.4,2.2,2.6,2.8c0.6,0.3,1.3,0.5,2.1,0.9c-1.6,1.2-2.9,2.6-5,1.3c-0.6-0.4-1.2,0-1.5,0.3c-1.1,1-2,0.5-3-0.3
		c-3.8-2.8-6.3-6.7-8.5-10.8c-0.8-1.5-0.7-3.2-1.2-4.7c-0.6-2.1-0.3-4.4-0.6-6.6c-0.2-1.3,0.4-2.7,1.5-3.6c0.7-0.6,1-1.2-0.2-1.8
		C606,422.2,607.3,421.8,608.5,421z"/>
	<path id="XMLID_200_" class="st2" d="M564.4,451.9c-1.8,1.2-3.3,2.3-5.4,1.7c-1.8-0.6-2-0.8-1.5-2.7c0.4-1.3,1.5-1.8,2.4-2.6
		c0-0.5-1.1-0.8-0.3-1.5c-0.6-0.4-1,0.5-1.7,0c0,0-0.2-0.2-0.2-0.4c0-1.6-0.1-3.1-0.1-4.7c0.1-6.8-0.3-13.5-0.5-20.3
		c-0.1-2.4,0.4-5-1.5-7.1c-0.4-0.4,0.1-0.9,0.5-1.2c1.8-1.2,4.1-1.6,5.9-2.9c0.5-0.3,0.9,0.1,1.2,0.6c0.4,0.9,0.5,1.8,0.5,2.7
		c0.2,6.7,0,13.4-0.4,20.1c-0.1,1.9,0.3,3.8-0.3,5.7c-0.1,0.4-0.7,1.7,0.7,2.2c0.6,0.2-0.4,0.7-0.3,1.2c0.6,2.6,0.1,5.3,0.3,7.9
		C563.7,451.1,563.9,451.6,564.4,451.9z"/>
	<path id="XMLID_199_" class="st2" d="M316.1,438.5c-0.8-2.7-1.6-5.3-2.3-7.9c-1.3-4.4-2.9-8.8-4.5-13.1c-0.6-1.6-2.4-1.5-3.7-2.1
		c-0.7-0.3-1.6-0.4-1.6-1.3c-0.1-0.9,0.8-1.2,1.4-1.4c2.5-0.7,5-1.4,7.7-1.3c1,0.1,1.1,0.7,1.4,1.4c1.1,3.1,2.1,6.2,3.2,9.2
		c1.3,3.4,2.7,6.8,4.3,10.1c0.6,1.3,0.7,2.7,1.1,4.1c0.3,0.9-0.5,1.5-1.2,1.2C319.7,436.6,318.1,437.8,316.1,438.5z"/>
	<path id="XMLID_198_" class="st2" d="M215,419.8c-2.5,0.2-2.7-0.1-2.4-2.1c0.3-1.7-1.2-3-3.1-2.6c-1.2,0.2-2.3,0.6-3.5,0.7
		c3.8-2.3,7.4-5.2,12.6-3.7c0,1.6,0.1,3.3,0,5c-0.5,4.9-0.3,9.8-0.3,14.7c0,2.5-0.3,2.9-3.2,3.6C215,430.2,215,425.1,215,419.8z"/>
	<path id="XMLID_197_" class="st2" d="M235.1,439.3c0.6,0.8,0.3,1.6,0.4,2.4c0,1.8,0.1,3.4,0.9,5.2c0.9,2.2,0.4,4.8,0.2,7.2
		c0,0.6-0.6,0.9-1.2,1.1c-1.7,0.7-3.5,0.5-5.2,0.7c-1,0.1-1-1.1-1-1.8c-0.1-1.6,0-3.1-0.1-4.7c0-0.8,0-1.7-0.2-2.5
		c-0.1-0.5-0.1-0.9,0.3-1.4c1.1-1.2,2.2-2.2,2.7-4C232.1,440.2,233.8,439.8,235.1,439.3z"/>
	<path id="XMLID_196_" class="st2" d="M167.2,425.5c-0.6-3-0.9-5.7-0.4-8.5c0.1-0.7-0.5-1-1-1.2c-0.6-0.3-1.2-0.5-2.1-0.8
		c2.9-2.4,6-1.1,9-1.6c0.5,3.2,0,6.2-0.2,9.2c0,0.3-0.2,0.6-0.4,0.7C170.6,424.3,169.1,425.5,167.2,425.5z"/>
	<path id="XMLID_195_" class="st2" d="M619.8,453.1c1.7-1.5,3.4-2.8,5.8-2.7c3.3,0.2,6.6,0,9.9-0.4c2-0.2,3.8-1.1,5.6-1.8
		c0.7-0.3,1.3-0.7,1.8,0.2c0.6,1-0.1,1.5-0.8,1.9c-1.9,1.1-3.8,2.2-6,2.5c-3.3,0.4-6.5,1.2-9.9,1.1C624,453.7,622,452.7,619.8,453.1
		z"/>
	<path id="XMLID_194_" class="st2" d="M129,421.8c0.2,0.5,0.7,0.2,1,0.5c-1.1,1.4-2.7,1.8-4.3,2.6c-0.7-1.6,0.5-2.3,1.1-3.5
		c-1.3,0.4-1.8-0.2-1.8-1.2c0-0.9-0.3-1.6-1.4-1.9c1.1-1.8,1.9-3.6,3.9-4.5c1.2-0.5,2.2-0.2,2.3,0.8
		C130,417.1,131.2,419.7,129,421.8z"/>
	<path id="XMLID_193_" class="st2" d="M699.3,412.3c-0.7,0-1.2,0.4-1.7,0.7c-0.6,0.3-1.2,0.4-1.8-0.1c-0.7-0.7-1.4-0.8-2.3-0.3
		c-0.7,0.4-1.1-0.1-1.5-0.7c-0.3-0.6-0.1-1.2,0.4-1.4c0.9-0.3,1.6-1.8,2.9-0.6c0.4,0.4,0.7-0.2,1.1-0.3c1.4-0.5,2.7-1.4,4.2-0.1
		c0.7,0.6,1.3-0.5,2.2-0.4c0.5,0.8-1.2,0.8-0.6,1.6l0,0c-0.5-0.2-0.7,0-0.9,0.4l0,0c-0.7,0-1.1,0.3-1.3,0.9l0,0
		C699.7,411.8,699.4,411.8,699.3,412.3L699.3,412.3z"/>
	<path id="XMLID_192_" class="st2" d="M460.3,444.9c0.3,1.9,0.5,3.5,0.4,5.3c0,2.5,0,2.5-2.8,3.5c0-1.4,0-2.7,0-4c0-0.4,0-0.9,0-1.3
		C457.8,445.9,457.8,445.9,460.3,444.9z"/>
	<polygon id="XMLID_191_" class="st2" points="76.9,426.8 83.3,432.9 76.9,440 71.5,433.4 73.1,431.3 77.4,433.4 74.5,429.2 	"/>
	<polygon id="XMLID_190_" class="st2" points="796.3,428.4 790.9,421.8 789.6,423.2 790.4,425.5 788.3,424.6 784.5,428.9 790.9,435 
		793.2,432.5 790.4,428.4 794.6,430.5 	"/>
</g>
<g id="XMLID_165_">
	<path id="XMLID_185_" class="st3" d="M380.2,208.9c-7.6-6.1-17-9.2-28-9.2c-14.4,0-27.8,5.3-33.6,7.6
		c-26.9,10.7-62.9,41.3-54.8,73.1c0.5,2,1.2,3.9,2,5.7l-0.5,0c-2.1-0.1-4.2-0.1-6.3-0.1c-8.5,0-16.9,0.8-25.1,2.3
		c14.7-13.7,28.9-32.3,36.6-56.7c4.3-13.8,15.9-50.6-4.7-70.3c-3.1-3-6.7-5.3-10.8-7.1c8.6-5.9,15.5-11.6,20.8-17.2
		c9.4-9.9,28.9-30.4,22.3-50c-1.9-5.7-5.9-10.6-12.3-14.9c-9.9-6.7-23-10-39.1-10c-25.6,0-55.3,8.5-74.9,14.1
		c-29.1,8.3-59.1,21.1-86.8,36.8c-6.9,3.9-13.5,8-18.6,11.4c-6.8,4.5-12.1,8.1-8.9,13.8c1.1,2,3.3,3.3,5.7,3.3c2.2,0,4-0.8,14-5.6
		c9.8-4.7,25.1-12,44.6-19.8c-5.2,27-13.5,52.3-24.5,75.3c-1,2.1-2.5,5.2-4.3,8.8c-17.5,6-35.2,11.7-52.6,16.8l-0.3,0.1l-0.2,0.2
		c-16.4,6.4-25.1,11.3-23.6,18.8c1.5,7.2,11,8.4,20.1,8.4c0,0,0,0,0,0c1.4,0,2.9-0.2,4.3-0.3c12.5-0.7,24.8-5.1,36.6-12.9
		c-3.7,7.1-7.4,14.2-11.1,21.3c-1.6,3-3.1,5.8-4.5,8.6c-17.1,32.1-25.7,48.2-16.8,58.7c3.3,3.9,8.5,5.9,15.1,5.9
		c3.4,0,7-0.6,10.1-1.6c8.5-2.8,12.3-8.8,18.5-18.6c1.1-1.8,2.4-3.8,3.8-6c6.1-9.3,11.1-16.1,14.7-21c2.5-3.4,4.3-5.8,5.5-7.8
		c3.3-5.5,1.8-8.9,0-10.9c-0.9-1-2.1-1.7-3.5-2.1c10.6-15.4,20.2-31.6,28.4-48.4c27.5-10,51.8-20,72.4-29.9
		c4.5,0.1,8.2,1.1,11.1,3.2c10.6,7.4,9.6,34.6,2.6,55.5c-5,14.8-13.1,25.3-24.2,40c-7.6,10-14.5,17.5-19.6,23
		c-8.5,9.2-13.6,14.8-9.6,21.1c0.9,1.4,3.1,3.8,7.4,3.8c2.8,0,6-1,10.8-2.6c6.9-2.2,17.3-5.5,32.2-7.6c1.7-0.2,3.3-0.4,4.9-0.6
		c7.7-1,15-1.9,24.3-6c6.9-3,13.4-7,19.4-12l2.4-2c4.2,5.1,9.8,10,16.9,13.9c8.4,4.7,17.8,7.3,27.9,7.3c0,0,0,0,0,0
		c12.1,0,25-3.6,38.2-10.2c31.9-16,40.5-37,42.1-51.7C397,251.5,399.3,224.3,380.2,208.9z M256.3,111.8
		c-0.2,23.4-48.5,45.2-105.5,67.1c10.1-25.9,17.5-53,21.9-80.7c2.1-0.6,4.2-1.2,6.2-1.8c21.1-6,36.2-8.8,47.4-8.8
		c9.8,0,16.6,2.1,21.6,6.8C249.3,95.6,256.4,102.7,256.3,111.8z M349.8,244.2c6.9,13.8,1,32.3-13.3,42.9c-5.3-0.6-19.6-3.5-25.9-15
		c-6.8-12.5-2.3-32.9,14.9-44.5C330.6,228.8,343.9,232.5,349.8,244.2z"/>
	<path id="XMLID_173_" class="st3" d="M575.9,195.6c3.2-13.6,5.6-23.8,7.4-30.4c20.3-2.7,40.4-4.8,60-6.2c2.3-0.2,4.6-0.3,6.9-0.5
		c20.1-1.4,35.9-2.5,56.8-9.7c6.8-2.3,14.1-5.4,19.6-8.1c5.9-2.9,14-6.9,12-13.8c-0.7-2.4-2.9-5.4-9-5.4c-5,0-14,1.6-27.6,3.9
		c-13.8,2.4-31,5.4-51.3,8c-19.6,2.6-39.5,4.4-59.1,5.6l36.4-110.5l-11.3,3.1c-13.4,3.7-25.7,9.9-36.6,18.3
		c-7.7,6-14.5,13-20.3,20.9l7.7,9.4l4.5-2.1c0,0.1-0.1,0.2-0.1,0.4c-7.6,20.8-14.8,42-21.2,63.3c-12,3-24.3,5.5-36.6,7.6
		c-9.6,1.6-15.3,2.3-24.8,3.5c-4.5,0.5-9.8,1.2-16.7,2c-34.1,4.3-51.3,6.5-63.6,10c-21.2,6.1-47.6,18-51.1,24.7
		c-0.9,1.8-1.1,3.5-0.4,5.3c0.4,1.1,2,4.4,7.2,4.4h0c2.8,0,6.9-0.7,16.8-3c8-1.9,18.9-4.3,32.9-7c6-1.2,12.9-2.4,38.7-6.3
		c-1.5,0.3-3,0.7-4.5,1.1c-15.9,4-28.8,9.4-36.8,13.2c-15.7,7.4-17.2,10.4-17.7,11.5c-0.8,1.7-0.9,3.7-0.2,5.4
		c0.5,1.3,1.6,2.6,3.3,3.4c-0.2,1.2,0,2.6,0.8,4.1c1.2,2,3.3,3.3,5.8,3.3c1.7,0,3.4,0,17.9-7.1c-6.7,14-13.2,28.2-19.6,42.4
		c-16.2,36-21.4,48.9-13.4,56.8c2.6,2.6,6.3,3.9,10.9,3.9c8.5,0,21.2-4.7,37.7-14c2.6-1.4,5.1-3,7.6-4.6c-1.9,7.4-2.5,15.7,3.1,20.5
		c2.3,2,5.3,3,9,3c12.8,0,34.3-13.6,40-21.9c2.5-3.6,2.2-6.6,1.5-8.4c-1.3-3.4-4.3-4.7-6.9-5.2c1.7-13.8,5.1-26.9,9.9-38.8
		c1.3-3.2,2.8-6.6,4.5-10.2c4.5-9.9,10-22.2,15.4-40.1c0.9-2.9,1.7-5.8,2.5-8.8l2.8-10.2l-10.3,2.5c-9.2,2.2-18.1,5.8-26.3,10.5
		c-6.6,3.8-12.8,8.5-18.4,13.8l-6.5,6.2c2.2-4.8,4.3-10.1,6.3-16.2c1.2-3.6,2.2-7.2,3.2-10.8l2.2-8.6c21.8-3.2,43.9-6.4,66-9.6
		c-3.9,14.3-7.8,28.6-11.6,42.7c-2,7.4-3.8,14.1-5.4,20.3c-5.7,21.2-10.1,37.9-16.6,60.6c-2.4,8.3-4.9,16.8-7.4,25.1l-2.4,8l8.9,0.1
		c10.8,0,20.4-3,27.9-8.7c11.4-8.7,14.8-21.3,16.4-27.3c9.5-35.8,21.1-85.4,23.3-95L575.9,195.6z M474.4,220.1
		c-1.4,3.4-3,7.6-4.8,12.1c-3.3,8.4-8.2,21-9.5,23.1c-2.5,3.9-4.6,5.5-11.4,10.9c-3.3,2.6-7.8,6.1-13.7,11c-1.2,1-2.3,1.9-3.4,2.8
		c2.8-7.1,7.1-16.5,12.3-26.3c3.3-6.2,6.4-11.4,9.3-16.5c4-6.8,7.9-13.5,11.6-21.4L474.4,220.1z"/>
	<path id="XMLID_169_" class="st3" d="M823.4,30c-5.9,0.3-11.7,1.4-17.2,3.4C799,36,792.5,40,786.9,45.1l-1.4,1.3l-0.5,1.8
		c-4.4,17.3-7.3,34.8-8.8,52c-0.7,8.6-1,15.6-1.3,23.8c-0.3,9.1-0.7,19.4-1.8,34.7c-0.6,7.3-1.2,14.8-1.9,22
		c-16,2.7-30.4,9.4-41.9,19.2c-16.6,14.2-29.8,37.3-32.2,57.5c-0.1-0.2-0.3-0.4-0.4-0.6c-0.9-1.2-3-3.2-7-3.2c-1.5,0-6.1,0-19.9,6.9
		c-8.1,4-12.2,7.4-15.5,10.1c-2.7,2.2-4.5,3.7-7.9,5c-0.2,0.1-5.9,2.2-12.8,2.2c-6.1,0-11.3-1.7-15.4-5c-5.6-4.5-7.9-10.7-8.8-15.7
		c2.1,0.1,4.1,0.4,6.2,0.4c0,0,0,0,0,0c7.6,0,15.1-0.9,22.5-2.3c14.2-2.6,47.3-8.8,52.9-30.6c2.8-10.8-1.9-24.3-10.9-31.2
		c-5.9-4.5-13.9-6.9-23.9-6.9c-17.1,0-37.6,6.7-55,18.1c-19.8,13-32.3,29.8-35,47.4c-2.3,15,2,35.8,16.8,48.7
		c8.8,7.7,20.3,11.6,33.9,11.6c9.2,0,17.2-1.7,21.9-2.8c22.8-5,36.6-18.7,44.8-26.9c7.2-7.1,11.1-12.3,13-16.1
		c0.4,7,2.5,13.4,6.6,18.4c6.4,7.8,17.7,12.5,32,12.5c0,0,0,0,0,0c20.7,0,45.3-9.2,67.4-24.8l2.2-1.8l0.4-2.6
		c4.1-25.3,7.2-51.3,9.3-77.3c1.2-14.8,1.6-25.4,2.1-35.5c0.4-9.1,0.8-17.6,1.6-29c2.1-29.2,6-59.2,11.6-89l1.4-7.8L823.4,30z
		 M645.3,228.3c-5.6,0-12.2-1-16.6-1.7c-3.2-0.5-7-1.1-9.6-1.7c3.3-3.4,10.8-8.3,18.5-8.3c2,0,3.8,0.4,5.5,1.1
		c5.1,2.2,8.5,7.5,8.9,9.7C651.2,227.8,649.3,228.3,645.3,228.3z M759.7,207.8c3.3,3.2,8.1,20.5,6.8,39.6c-0.8,12.5-4.1,19.5-7,20.9
		c-0.5,0.3-1.2,0.4-2,0.4c-4.8,0-12.2-4.9-15.8-10.4c-6.6-10.3-1.1-24.7,1.6-30.5C748.9,216.1,756.6,208.8,759.7,207.8z"/>
	<g id="XMLID_166_">
		<path id="XMLID_168_" class="st3" d="M451.9,360.4c19.8-10.7,24.4-11,24.6-11c2.5-0.1,4.1-1.4,4.9-2.4c0.7-0.8,1.7-2.6,1.3-5.2
			c-1.2-6.5-8.9-8.6-20.9-9.8c-10.8-1.2-24.5-1.4-34.1-1.4c-12.1,0-25,0.4-36.3,1c-8.2,0.5-22.9,1.3-41.5,2.3
			c-45.9,2.4-115.4,6.1-175,10.1c-109.3,7.3-114.2,10.7-117.1,12.7c-0.1,0-18.1,12.6-18.1,12.6l1.5,4.5c1,2.8,3.8,9.7,8.9,12.1
			c1.7,0.8,3.4,1.2,5.3,1.2c4.3,0,8.9-2.1,14.1-6.6c46.2-2.5,84.3-5.4,115-7.7c19.5-1.5,36.3-2.8,51.7-3.7l0.1,0l7.8-0.8
			c36.7-3.6,74.6-7.3,114-9l1.7-0.1c17.9-0.8,35-1.6,51.9-2.1c-15.6,8.6-28.8,13-35.9,15.5c-2,0.7-3.6,1.2-4.8,1.7
			c-6.2,2.5-5.5,7-5.2,8.3c0.9,3.4,3.7,5.1,8.4,5.1c7.1,0,25.6-2.9,45.2-10.8c6.4-2.6,14.5-6.9,30.7-15.7L451.9,360.4z"/>
		<path id="XMLID_167_" class="st3" d="M869.8,325.1c-1.8-7.3-11.8-7.3-17.2-7.3c-13.3,0-36.3,2.7-65.5,6.2l-5.3,0.6
			c-58.4,6.9-93.7,10.7-119.5,13.5c-39.5,4.3-57.6,6.2-103.7,13.3c-15.5,2.4-31.1,4.9-46.6,7.4c0.4-0.2,0.8-0.5,1.2-0.7
			c10.2-5.7,19.8-9.3,26.2-11.7c8.1-3.1,13.5-5.1,12.2-11.3c-1.3-6-8.2-6-11.5-6c-3.7,0-8.5,0.4-13.2,1.1
			c-18.9,2.8-33.2,10.1-80.8,41.2c-11.9,7.8-18.5,12.2-15.8,18.9c1.3,3.3,4.3,5.1,9,5.1c0,0,0,0,0,0c4.3,0,11.9-1.3,25.6-3.5
			c3.5-0.6,7.4-1.2,11.7-1.9l4.6-0.8c6.1-1,12.4-2,18.6-2.9c7.3-1,14.8-2,22-2.9c12.4-1.6,25.3-3.3,37.9-5.3
			c11-1.8,42.9-5.3,106.4-12.2c32.4-3.6,64.7-7,98.8-10.6c25.2-2.6,50.6-5.2,75.5-7.8l0.9-0.1l0.9-0.4
			C864.8,337.7,871.5,332.3,869.8,325.1z"/>
	</g>
</g>
<g id="XMLID_145_">
	<path id="XMLID_162_" class="st4" d="M89.4,212.4c-5.2,10.3-11.8,23-19.1,36.9c-18.1,34.2-28.8,52.3-22.1,60.2
		c4,4.7,13.1,4.2,18.4,2.5c7.6-2.5,10.3-8.6,19-22.1c14.2-21.8,22.8-29.9,20.9-31.9c-1-1-4.6-0.4-17.2,8
		c13.6-17.5,28.7-40,42.2-67.8c23.3-8.4,50.6-19.1,75.5-31.1c5.6-0.1,11.4,0.9,16.2,4.3c15,10.5,11.5,43.2,4.9,62.7
		c-5.3,15.7-13.8,26.9-25.2,41.8c-17.9,23.4-31.3,33-28.9,36.9c2.3,3.7,14.5-5,44.2-9.2c9.9-1.4,17.3-1.7,27.6-6.1
		c8-3.5,14-7.8,17.8-11.1c-9-0.4-22.2-0.1-37.5,3.7c-12.5,3.1-22.1,6.1-20.3,4.9c15.6-10.1,45-32.7,57.1-71.3
		c4.2-13.4,14.7-46.9-3.1-63.9c-6.5-6.2-14.9-8.4-22.1-9.1c13-7.8,24.2-15.9,31.9-24.1c8.1-8.5,26.3-27.7,20.9-43.6
		c-1-3-3.3-7.3-9.8-11.7c-26.7-18.1-74.9-4.8-108.7,4.9c-11.1,3.2-45.4,13.5-85.4,36.2c-14.7,8.3-25.6,15.8-25.2,16.6
		c0.7,1.2,26.8-13.6,66.9-29c-6.4,39.4-17.6,68.5-27,88c-1.1,2.3-3,6.1-5.5,11.2c-22.2,7.7-41.1,13.5-55.3,17.7
		c-9.2,3.5-20.3,8.5-19.7,11.7c0.6,3,11.7,3.4,17.8,3.1c8.3-0.5,22.4-3,38.7-15.4C80.3,215.3,84.3,214.1,89.4,212.4z M176,84
		c41.3-11.7,62.5-12.2,74.9-0.6c1.3,1.2,10.5,10.1,10.4,22.1c-0.3,29.3-55.5,52.6-123.1,78.1c16-36.7,23.7-70.4,27.6-96.6
		C169.2,86,172.6,85,176,84z"/>
	<path id="XMLID_159_" class="st4" d="M268.7,272.6c3.7,14.6,17.6,22.4,21.5,24.6c25.5,14.3,53.9,0.1,60.2-3.1
		c6.9-3.5,35.6-17.8,38.7-46.7c0.2-2.3,2.5-26.5-14.1-39.9c-18.8-15.1-46.3-4.2-55.3-0.6C292.8,217.6,262.1,246.4,268.7,272.6z
		 M322.8,214.9c1.7,0.2,22.7,2.9,31.3,20.3c8.2,16.6,1.8,39.6-17.2,52.2c-1.2-0.1-23.8-1.3-33.2-18.4
		C294.8,252.4,301.6,227.7,322.8,214.9z"/>
	<path id="XMLID_158_" class="st4" d="M411.8,177.1c7-1.4,14.9-2.8,62-9.8c19.8-2.9,45.7-6.7,76.2-11.1
		c-6.1,22.2-10.9,40.1-14.1,51.9c-8.8,32.9-13.7,51.7-22.1,81.1c-3.1,10.6-5.6,19.4-7.4,25.2c5.8,0.1,15.9-0.7,24.6-7.4
		c9.5-7.3,12.5-18,14.1-24c9.8-37,22-89.5,23.2-94.8c0,0,0.1-0.3,0.1-0.4c4.9-21,7.3-30.2,8.6-34.7c27.3-3.7,49.4-5.7,64.5-6.8
		c22.8-1.6,39.6-2.1,62-9.8c12.8-4.4,28.4-11.6,27.6-14.1c-1-3.5-33.1,4.8-81.1,11.1c-28.8,3.8-52.7,5.4-68.8,6.1
		c11.9-36,23.8-72.1,35.6-108.1c-8.4,2.3-21.3,7-34.4,17.2c-8.7,6.8-14.9,13.9-19,19.7c6.1-2.9,12.3-5.7,18.4-8.6
		c-1.9,4.9-3.7,9.8-5.5,14.7c-8.3,22.6-15.6,44.7-22.1,66.3c-9.2,2.3-23.2,5.7-40.5,8.6c-14.3,2.4-20.1,2.8-41.8,5.5
		c-33.9,4.3-50.8,6.4-62.7,9.8c-26,7.5-48.2,19.7-47.3,22.1C362.8,189,378.7,183.7,411.8,177.1z"/>
	<path id="XMLID_157_" class="st4" d="M513.8,193.4c1.1-3.6,1.9-6.6,2.5-8.6c-6.5,1.6-15.2,4.4-24.6,9.8c-7.3,4.3-13,8.9-17.2,12.9
		c2.3,1,4.5,2,6.8,3.1c-3.3,7-14.5,37.6-17.2,41.8c-4.5,7.1-8.1,8.2-26.4,23.3c-12.8,10.6-15.2,13.2-16.6,12.3
		c-3.8-2.5,7.6-27.9,16-43.6c10.7-20.3,19.5-30.4,27-53.4c1.5-4.4,2.5-8.1,3.1-10.4c-4.5,0.7-10.9,1.8-18.4,3.7
		c-29.6,7.5-50.9,20.4-50.5,21.5c0.1,0.2,1.8-0.3,5.6,0c1.9,0.1,2.3,0.3,2.5,0.6c0.8,1.5-4.7,5.5-4.3,6.1c0.6,1,12.9-4.9,31.9-14.7
		c-6.8,13.9-16.4,34.1-27.6,59c-15.5,34.3-19.3,45.2-14.7,49.8c7.8,7.7,35.2-7.7,41.2-11.1c11.1-6.3,19.4-13.3,25.2-19
		c-0.7,1.4-14.9,29.1-7.4,35.6c8.6,7.4,42.4-15.2,40.5-20.3c-0.5-1.5-4.1-1.6-8-1.2c1.8-21.2,6.8-36.9,11.1-47.3
		C499.1,231.1,506.6,217.4,513.8,193.4z"/>
	<path id="XMLID_154_" class="st4" d="M635.7,242.5c12.3-2.3,43.4-7.9,47.9-25.8c2.1-8.1-1.3-18.9-8.6-24.6
		c-23.6-18.2-97,10.8-103.8,54.7c-2.2,14.1,2.2,32.1,14.7,43c17,14.7,40.8,9.5,50.4,7.4c21-4.6,33.7-17.2,41.8-25.2
		c0.9-0.9,14.6-14.6,12.3-17.8c-2.1-2.9-16.4,4.2-19,5.5c-14.4,7.2-14.8,11.8-24,15.4c-1.5,0.6-20.4,7.5-34.4-3.7
		c-11.9-9.5-11.7-25.3-11.7-27.6C609.5,244.6,621.5,245.1,635.7,242.5z M644.3,205.7c8.2,3.5,14.7,13.4,12.3,18.4
		c-3.1,6.6-21.1,3.8-30.1,2.5c-9.6-1.5-15.9-2.4-16.6-5.5C608.6,214.9,629,199.1,644.3,205.7z"/>
	<path id="XMLID_151_" class="st4" d="M706.9,274.5c12.6,15.5,52,13.8,90.9-13.5c2.8-17.4,6.7-44,9.2-76.8
		c2.2-27.6,1.9-39.8,3.7-64.5c1.6-21.4,4.7-52.2,11.7-89.7c-3.9,0.2-9.3,0.9-15.4,3.1c-8.2,3-13.9,7.4-17.2,10.4
		c-5.3,21.2-7.6,38.7-8.6,51c-1.5,18-0.9,29.5-3.1,58.4c-0.9,11.4-1.8,20.8-2.5,27c-9.4,1.1-27.5,4.7-43.6,18.4
		C707.8,219,693.5,258,706.9,274.5z M759.8,195.2c12.7,2.5,18.4,64.2,1.2,72.5c-7.9,3.8-20.3-3.8-25.8-12.3
		C720.5,232.7,748.8,193,759.8,195.2z"/>
	<path id="XMLID_150_" class="st4" d="M474,336.7c-1.2-6.7-52.7-6.9-84.7-5c-48,2.9-318.5,15.7-330.4,24c-0.1,0-3.8,2.7-7.1,5
		c-3.5,2.4-7,4.9-7,4.9c0,0,2.4,6.9,5.6,8.5c2.2,1.1,6.2,1.5,14.1-5.9c75.7-4.1,127.7-8.6,168.9-11.6c0,0,0,0,0,0
		c38.9-4,79.6-7.9,122.1-9.8c26.3-1.2,51.9-2.3,76.9-2.6c-4.5,3.2-10.9,7.2-19.1,11.8c-25.1,14-44.1,17.6-43.7,18.9
		c0.4,1.4,21.8-0.6,45.2-9.9c6.3-2.5,14.8-7.1,31.8-16.3C473.4,334.1,474.1,337.6,474,336.7z"/>
	<path id="XMLID_149_" class="st4" d="M861.1,320.4c-1.3-5.4-34.7-1.3-81.1,4.2c-147.1,17.4-146.6,15.1-223,26.8
		c-31.7,4.9-57.4,9.2-73.4,12c5.2-4.5,13.2-10.9,24-16.9c19.1-10.7,35.7-14.2,35.3-16.2c-0.3-1.5-9-1.3-17.6,0
		c-17,2.5-29.8,8.6-78.3,40.2c-8.3,5.4-14.2,9.3-13.4,11.3c0.9,2.3,10.5,0.3,39.5-4.2c7.8-1.2,15.6-2.5,23.4-3.6
		c19.9-2.8,39.9-5,59.8-8.1c11.2-1.8,43-5.3,106.7-12.3c39.5-4.3,73.1-7.9,98.8-10.6c32.1-3.4,58.3-6,75.5-7.8
		C848.7,330.3,862,323.9,861.1,320.4z"/>
	<path id="XMLID_148_" class="st4" d="M474,336.7c-1.2-6.7-52.7-6.9-84.7-5c-48,2.9-318.5,15.7-330.4,24c-0.1,0-3.8,2.7-7.1,5
		c-3.5,2.4-7,4.9-7,4.9c0,0,2.4,6.9,5.6,8.5c2.2,1.1,6.2,1.5,14.1-5.9c75.7-4.1,127.7-8.6,168.9-11.6c0,0,0,0,0,0
		c38.9-4,79.6-7.9,122.1-9.8c26.3-1.2,51.9-2.3,76.9-2.6c-4.5,3.2-10.9,7.2-19.1,11.8c-25.1,14-44.1,17.6-43.7,18.9
		c0.4,1.4,21.8-0.6,45.2-9.9c6.3-2.5,14.8-7.1,31.8-16.3C473.4,334.1,474.1,337.6,474,336.7z"/>
	<path id="XMLID_146_" class="st4" d="M861.1,320.4c-1.3-5.4-34.7-1.3-81.1,4.2c-147.1,17.4-146.6,15.1-223,26.8
		c-31.7,4.9-57.4,9.2-73.4,12c5.2-4.5,13.2-10.9,24-16.9c19.1-10.7,35.7-14.2,35.3-16.2c-0.3-1.5-9-1.3-17.6,0
		c-17,2.5-29.8,8.6-78.3,40.2c-8.3,5.4-14.2,9.3-13.4,11.3c0.9,2.3,10.5,0.3,39.5-4.2c7.8-1.2,15.6-2.5,23.4-3.6
		c19.9-2.8,39.9-5,59.8-8.1c11.2-1.8,43-5.3,106.7-12.3c39.5-4.3,73.1-7.9,98.8-10.6c32.1-3.4,58.3-6,75.5-7.8
		C848.7,330.3,862,323.9,861.1,320.4z"/>
</g>
</svg>
